<?xml version="1.0" standalone="no"?><!DOCTYPE svg PUBLIC "-//W3C//DTD SVG 1.1//EN" "http://www.w3.org/Graphics/SVG/1.1/DTD/svg11.dtd"><svg t="1664344965334" class="icon" viewBox="0 0 1024 1024" version="1.1" xmlns="http://www.w3.org/2000/svg" p-id="2143" xmlns:xlink="http://www.w3.org/1999/xlink" width="200" height="200"><path d="M397.446119 983.460396c0 20.109804-14.889855 36.90964-34.219666 40.019609v0.519995H73.289284C33.039677 1023.99 0 989.960332 0 947.810744V76.699251C0 34.77966 32.839679 0.529995 73.289284 0.529995H886.691341C926.970948 0.529995 959.990625 34.549663 959.990625 76.699251v400.496089c0 21.409791-17.579828 38.92962-39.059618 38.92962-21.47979 0-39.059619-17.519829-39.059619-38.92962V286.007207c0-0.779992 0.03-1.549985 0.079999-2.309977l-1.699983-203.218016L81.9092 82.599193l-2.489976 861.601586 80.179217-0.359996c2.759973-0.599994 5.629945-0.919991 8.569917-0.919991h188.618158c0.329997 0 0.649994 0.02 0.96999 0.02l5.479947-0.02v0.519995c19.319811 3.10997 34.209666 19.909806 34.209666 40.019609zM228.997764 227.997773c-21.999785 0-39.999609 17.999824-39.99961 39.99961s17.999824 39.999609 39.99961 39.999609h495.995156c21.999785 0 39.999609-17.999824 39.999609-39.999609s-17.999824-39.999609-39.999609-39.99961H228.997764z m242.997627 209.93795H228.237771c-21.999785 0-39.999609 17.999824-39.999609 39.99961s17.999824 39.999609 39.999609 39.999609H471.995391c21.999785 0 39.999609-17.999824 39.999609-39.999609s-17.999824-39.999609-39.999609-39.99961zM399.996094 647.993672H227.757776c-21.999785 0-39.999609 17.999824-39.99961 39.999609s17.999824 39.999609 39.99961 39.99961H399.996094c21.999785 0 39.999609-17.999824 39.999609-39.99961s-17.999824-39.999609-39.999609-39.999609z m549.234636 301.08706c-99.879025 99.879025-261.597445 99.869025-361.47647 0-99.679027-100.079023-99.679027-262.11744 0-362.186463 99.879025-99.869025 261.597445-99.869025 361.47647 0 99.679027 100.079023 99.679027 262.11744 0 362.186463z m-44.319567-316.196913c-74.519272-74.519272-195.178094-74.519272-269.697366 0-74.369274 74.669271-74.369274 195.55809 0 270.227362 74.519272 74.509272 195.178094 74.519272 269.697366 0 74.369274-74.669271 74.369274-195.56809 0-270.227362zM852.99167 693.993223l-94.999072 103.998984-59.999414-58.999424c-5.12995-5.449947-26.539741-5.379947-34.999659 3.999961-5.019951 5.559946-4.13996 26.539741 0.999991 31.999688l53.999472 59.999414c2.669974 2.829972 16.059843 15.909845 18.999815 17.999824 9.589906 6.829933 27.169735 5.15995 27.999726 4.999951 3.219969-0.339997 23.659769-11.409889 25.999746-13.999863l100.999014-117.998848c5.019951-5.589945 4.999951-23.999766-4.999951-34.999658-5.039951-5.539946-28.959717-2.549975-33.999668 2.999971z" p-id="2144"></path></svg>